<?xml version="1.0" standalone="no"?>
<!DOCTYPE svg PUBLIC "-//W3C//DTD SVG 20010904//EN"
 "http://www.w3.org/TR/2001/REC-SVG-20010904/DTD/svg10.dtd">
<svg version="1.0" xmlns="http://www.w3.org/2000/svg"
 width="504.000000pt" height="504.000000pt" viewBox="0 0 504.000000 504.000000"
 preserveAspectRatio="xMidYMid meet">
<metadata>
Created by potrace 1.11, written by Peter Selinger 2001-2013
</metadata>
<g transform="translate(0.000000,504.000000) scale(0.100000,-0.100000)"
fill="#000000" stroke="none">
<path d="M2300 5017 c-3 -3 -41 -7 -85 -11 -88 -7 -237 -31 -300 -48 -22 -6
-44 -11 -50 -12 -175 -38 -469 -162 -664 -280 -533 -324 -934 -855 -1106
-1465 -14 -51 -30 -114 -35 -140 -5 -25 -12 -57 -15 -71 -29 -132 -43 -305
-40 -505 3 -208 6 -251 31 -400 42 -249 108 -453 224 -690 181 -369 394 -627
755 -913 69 -55 250 -165 368 -224 146 -73 373 -157 493 -183 204 -43 252 -51
374 -62 135 -12 423 -6 530 11 14 2 48 8 75 12 28 4 55 8 60 10 6 1 44 10 85
19 79 17 201 50 235 64 11 5 65 26 120 46 293 111 639 343 866 581 296 311
517 705 619 1103 24 95 46 201 55 261 3 25 8 56 10 70 18 119 23 360 12 519
-36 480 -223 973 -510 1341 -207 265 -427 461 -702 627 -287 172 -565 268
-956 328 -44 7 -443 17 -449 12z"/>
</g>
</svg>
